<mxfile host="app.diagrams.net" modified="2022-10-28T00:17:48.267Z" agent="5.0 (Windows)" etag="z-8Xi633gEUjvsba8sLc" version="20.5.1" type="github">
  <diagram id="aAOaJ95E-23EwB6pSfUg" name="Page-1">
    <mxGraphModel dx="1422" dy="744" grid="1" gridSize="10" guides="1" tooltips="1" connect="1" arrows="1" fold="1" page="1" pageScale="1" pageWidth="827" pageHeight="1169" math="0" shadow="0">
      <root>
        <mxCell id="0" />
        <mxCell id="1" parent="0" />
        <mxCell id="8gvYn8TRRi6VmLkWt9uk-3" value="&lt;div&gt;Enters project name&lt;br&gt;&lt;/div&gt;&amp;nbsp;and description" style="edgeStyle=orthogonalEdgeStyle;rounded=0;orthogonalLoop=1;jettySize=auto;html=1;" edge="1" parent="1" source="8gvYn8TRRi6VmLkWt9uk-1" target="8gvYn8TRRi6VmLkWt9uk-2">
          <mxGeometry relative="1" as="geometry" />
        </mxCell>
        <mxCell id="8gvYn8TRRi6VmLkWt9uk-1" value="User enters project creation page" style="ellipse;whiteSpace=wrap;html=1;" vertex="1" parent="1">
          <mxGeometry width="120" height="80" as="geometry" />
        </mxCell>
        <mxCell id="8gvYn8TRRi6VmLkWt9uk-5" value="&lt;div&gt;Selects&lt;/div&gt;&lt;div&gt;skills&lt;br&gt;&lt;/div&gt;" style="edgeStyle=orthogonalEdgeStyle;rounded=0;orthogonalLoop=1;jettySize=auto;html=1;" edge="1" parent="1" source="8gvYn8TRRi6VmLkWt9uk-2" target="8gvYn8TRRi6VmLkWt9uk-4">
          <mxGeometry relative="1" as="geometry" />
        </mxCell>
        <mxCell id="8gvYn8TRRi6VmLkWt9uk-14" value="Failure (User enters profanity)" style="edgeStyle=orthogonalEdgeStyle;rounded=0;orthogonalLoop=1;jettySize=auto;html=1;entryX=0.5;entryY=1;entryDx=0;entryDy=0;" edge="1" parent="1" source="8gvYn8TRRi6VmLkWt9uk-2" target="8gvYn8TRRi6VmLkWt9uk-1">
          <mxGeometry relative="1" as="geometry">
            <Array as="points">
              <mxPoint x="330" y="110" />
              <mxPoint x="60" y="110" />
            </Array>
          </mxGeometry>
        </mxCell>
        <mxCell id="8gvYn8TRRi6VmLkWt9uk-2" value="User enters skill selection page" style="ellipse;whiteSpace=wrap;html=1;" vertex="1" parent="1">
          <mxGeometry x="270" width="120" height="80" as="geometry" />
        </mxCell>
        <mxCell id="8gvYn8TRRi6VmLkWt9uk-8" value="&lt;div&gt;Enters&lt;/div&gt;&lt;div&gt;additional&lt;/div&gt;&lt;div&gt;links&lt;br&gt;&lt;/div&gt;" style="edgeStyle=orthogonalEdgeStyle;rounded=0;orthogonalLoop=1;jettySize=auto;html=1;entryX=0;entryY=0.5;entryDx=0;entryDy=0;" edge="1" parent="1" source="8gvYn8TRRi6VmLkWt9uk-4" target="8gvYn8TRRi6VmLkWt9uk-6">
          <mxGeometry relative="1" as="geometry">
            <mxPoint x="670" y="40" as="targetPoint" />
          </mxGeometry>
        </mxCell>
        <mxCell id="8gvYn8TRRi6VmLkWt9uk-4" value="User enters additonal links page" style="ellipse;whiteSpace=wrap;html=1;" vertex="1" parent="1">
          <mxGeometry x="470" width="120" height="80" as="geometry" />
        </mxCell>
        <mxCell id="8gvYn8TRRi6VmLkWt9uk-13" value="Project created" style="edgeStyle=orthogonalEdgeStyle;rounded=0;orthogonalLoop=1;jettySize=auto;html=1;" edge="1" parent="1" source="8gvYn8TRRi6VmLkWt9uk-6" target="8gvYn8TRRi6VmLkWt9uk-12">
          <mxGeometry relative="1" as="geometry" />
        </mxCell>
        <mxCell id="8gvYn8TRRi6VmLkWt9uk-6" value="api/Create" style="rounded=1;whiteSpace=wrap;html=1;absoluteArcSize=1;arcSize=14;strokeWidth=2;" vertex="1" parent="1">
          <mxGeometry x="700" y="10" width="100" height="60" as="geometry" />
        </mxCell>
        <mxCell id="8gvYn8TRRi6VmLkWt9uk-12" value="User redirected to view project" style="ellipse;whiteSpace=wrap;html=1;" vertex="1" parent="1">
          <mxGeometry x="690" y="150" width="120" height="80" as="geometry" />
        </mxCell>
      </root>
    </mxGraphModel>
  </diagram>
</mxfile>
